PathFileType	4	(X/Y/Z)	C:/Users/beibeiliu/ov580/test_trc\sequence.18_training_dense_left.trc
DataRate	CameraRate	NumFrames	NumMarkers	Units	OrigDataRate	OrigDataStartFrame	OrigNumFrames
120	120	23	19	mm	120	1	336
Frame#	Time	ThumbCMC			ThumbMCP			ThumbIP			ThumbTip			IndexMCP			IndexPIP			IndexTip			MiddleMCP			MiddlePIP			MiddleTip			RingMCP			RingPIP			RingTip			PinkyMCP			PinkyPIP			PinkyTip			BackHand1			BackHand2			BackHand3	
		X0	Y0	Z0	X1	Y1	Z1	X2	Y2	Z2	X3	Y3	Z3	X4	Y4	Z4	X5	Y5	Z5	X6	Y6	Z6	X7	Y7	Z7	X8	Y8	Z8	X9	Y9	Z9	X10	Y10	Z10	X11	Y11	Z11	X12	Y12	Z12	X13	Y13	Z13	X14	Y14	Z14	X15	Y15	Z15	X16	Y16	Z16	X17	Y17	Z17	X18	Y18	Z18	
0	0	-189.77	0.465747	26.6486	-175.099	-12.4897	10.5139	-157.841	-17.1922	-5.07836	-144.033	-22.9475	-21.4992	-193.825	4.99381	-41.8671	-186.635	0.267208	-62.9461	-179.934	-5.96933	-89.6356	-214.465	5.38501	-51.2867	-214.64	1.03623	-75.7427	-216.437	-7.48852	-100.57	-233.518	3.86074	-47.7257	-235.404	0.775288	-66.3461	-237.374	-5.58087	-87.3874	-257.762	-0.106584	-34.0336	-261.344	-3.68819	-48.8006	-263.31	-6.8802	-70.3898	-234.837	17.3383	-5.43256	-237.549	22.7152	24.9056	-210.773	20.8254	9.87579	
1	0.00833333	-192.1	-0.0293888	23.8235	-174.802	-11.5446	9.1027	-163.508	-17.2181	-7.6457	-146.012	-23.5832	-22.1075	-195.179	5.0253	-43.8295	-188.69	0.565725	-67.8332	-182.941	-6.50208	-91.1374	-214.748	4.74409	-54.1595	-214.808	1.06809	-73.6225	-217.61	-8.11266	-100.905	-239.108	4.2659	-46.0623	-235.595	-0.331031	-67.0334	-237.888	-7.06231	-92.6986	-255.802	-0.656564	-30.6865	-264.164	-5.11917	-53.7405	-267.536	-6.4634	-68.9763	-238.623	16.3518	-2.21988	-237.191	23.3338	21.8107	-210.859	19.5767	7.83568	
2	0.0166667	-192.994	-0.824713	25.7819	-177.628	-12.2111	11.3407	-159.554	-18.3318	-9.15411	-149.687	-23.8442	-18.7631	-189.985	3.66062	-46.3201	-189.56	0.0645354	-65.5196	-179.979	-5.7961	-86.4708	-217.443	5.35893	-50.9962	-215.202	0.084548	-74.6736	-214.581	-7.82198	-99.1082	-234.222	3.85986	-44.0264	-236.226	-1.87683	-71.327	-239.009	-7.77217	-91.4845	-257.821	0.0617792	-32.0276	-264.12	-5.59591	-51.4474	-266.017	-9.40057	-68.9479	-239.394	16.9928	-2.92295	-236.889	21.5411	21.7339	-212.987	19.3702	10.5037	
3	0.025	-189.233	-0.863874	21.8151	-177.444	-12.5737	8.40533	-161.76	-18.4481	-7.56848	-148.994	-24.1591	-16.58	-192.843	3.24031	-45.959	-184.777	-0.625937	-67.872	-185.357	-5.91919	-86.0471	-215.225	4.68391	-49.3153	-215.454	-0.837848	-76.5911	-217.308	-8.71688	-99.7592	-233.905	3.34604	-46.578	-237.095	-1.91584	-69.8317	-236.659	-6.65478	-86.5531	-253.22	-1.06863	-31.1581	-259.87	-4.54393	-51.9501	-266.592	-7.65791	-69.1623	-237.46	15.1728	-5.44939	-240.562	21.6988	20.3045	-211.186	19.075	7.77233	
4	0.0333333	-194.007	-1.85164	25.0268	-175.701	-13.322	7.20543	-159.482	-19.1328	-5.0276	-145.679	-24.7844	-16.9917	-190.272	3.14697	-42.0042	-186.68	-0.20098	-63.0639	-180.16	-5.87218	-84.8887	-212.34	4.3985	-54.7584	-212.369	-2.79103	-78.2458	-214.483	-8.21788	-98.1567	-238.326	2.14498	-45.5968	-235.343	-2.27345	-71.1802	-238.196	-9.08978	-90.7523	-258.781	-1.81036	-32.6713	-258.214	-5.23471	-50.6397	-266.41	-8.19729	-69.4189	-237.848	16.4928	-4.91046	-234.362	21.5268	19.5225	-211.697	17.5348	7.83614	
5	0.0416667	-192.678	-2.26434	21.1011	-176.85	-13.3534	7.78606	-160.61	-18.8762	-9.32441	-144.907	-25.1594	-18.1201	-189.548	2.2896	-40.6308	-188.707	-1.85582	-67.4112	-180.7	-7.08456	-84.9324	-216.38	2.98206	-53.7777	-213.037	-1.99636	-75.6436	-217.413	-9.60717	-99.1106	-238.653	1.77604	-45.6238	-238.291	-3.17229	-70.7882	-239.481	-8.88655	-87.7289	-256.286	-1.1561	-32.6525	-258.196	-5.29588	-48.6678	-266.347	-10.7238	-67.9851	-234.649	15.8028	-1.06535	-236.792	20.5969	21.4442	-208.363	16.9574	9.58368	
6	0.05	-190.242	-2.37422	22.0664	-174.215	-14.0338	7.90073	-163.322	-20.9541	-5.52274	-148.18	-25.4532	-18.2454	-192.713	1.96671	-46.1101	-185.876	-2.29901	-62.6381	-182.969	-7.61425	-85.4192	-217.22	2.49191	-54.1814	-212.94	-2.16955	-73.2066	-215.194	-10.0187	-100.852	-233.86	1.41659	-43.2572	-236.943	-3.26402	-67.6886	-235.554	-9.18652	-91.4629	-258.526	-2.22838	-32.3522	-261.684	-7.34596	-53.3505	-266.269	-10.8404	-69.6458	-233.837	13.2386	-0.316432	-238.464	20.498	23.1347	-211.636	18.5739	10.6247	
7	0.0583333	-191.188	-2.00226	26.874	-175.824	-14.5156	10.7941	-158.538	-19.5162	-7.68943	-145.175	-25.4887	-16.9691	-191.679	2.88477	-44.5516	-184.554	-2.7923	-67.1348	-183.733	-6.76417	-85.7481	-215.32	2.62667	-53.6689	-213.926	-2.38662	-74.1055	-211.69	-12.0514	-102.814	-233.575	1.85346	-44.5855	-239.192	-3.37176	-68.205	-238.016	-9.15607	-87.753	-258.471	-1.43642	-34.9609	-259.783	-6.25446	-50.185	-265.683	-11.9662	-72.4362	-239.239	14.0683	-0.79075	-238.299	20.0767	21.3557	-208.637	19.0847	10.0952	
8	0.0666667	-191.308	-2.98115	23.7866	-176.118	-14.5744	7.42807	-163.185	-19.7116	-7.90706	-146.274	-25.0435	-22.2379	-191.894	3.41753	-42.3354	-185.781	-1.6366	-68.3617	-178.286	-8.70285	-89.5265	-214.75	4.0691	-50.3935	-216.301	-2.36363	-77.9668	-214.398	-10.9614	-100.653	-235.495	2.68523	-46.396	-238.4	-2.15927	-67.9827	-234.587	-9.14639	-90.5109	-257.635	-1.10692	-30.5902	-259.08	-5.23226	-49.4736	-265.482	-10.0886	-70.7844	-236.361	13.4358	-2.27451	-239.215	19.5867	24.2937	-210.772	16.9964	11.0567	
9	0.075	-193.923	-2.39966	24.6947	-172.82	-14.2393	8.67313	-159.557	-18.9487	-5.19823	-150.208	-25.5086	-20.3506	-190.936	3.67996	-43.89	-189.357	0.172461	-64.717	-183.085	-6.45425	-88.1617	-213.103	4.72978	-53.131	-211.919	-0.744803	-76.1171	-213.344	-9.99951	-99.5001	-232.105	3.87534	-47.9639	-238.913	-0.230125	-67.0069	-235.86	-7.879	-89.2118	-252.681	-0.479624	-31.294	-259.76	-5.2251	-52.8108	-261.92	-9.50032	-71.0474	-239.32	14.8603	-2.27694	-238.675	20.5102	19.938	-210.095	17.9789	11.6417	
10	0.0833333	-191.725	-1.21536	22.6267	-175.769	-13.2412	7.79437	-161.607	-18.81	-8.92424	-147.192	-23.893	-22.0835	-193.754	4.40453	-45.8229	-187.508	-0.176579	-65.8518	-185.027	-7.64111	-90.6751	-214.098	5.66651	-55.1598	-212.436	-0.247625	-75.1838	-216.361	-9.06153	-99.6774	-238.203	4.30051	-46.5643	-237.482	0.694681	-67.8369	-233.969	-5.69587	-91.1591	-252.445	0.725469	-32.4037	-257.755	-2.75222	-53.5522	-259.759	-7.98178	-71.6176	-239.41	15.9319	-2.09977	-238.353	19.9671	19.0432	-212.276	19.886	10.1856	
11	0.0916667	-196.167	-2.25258	24.6982	-174.481	-13.5385	9.50738	-161.274	-18.1563	-7.82241	-152.094	-23.151	-22.5755	-192.529	5.93241	-46.1238	-188.178	0.238322	-68.3455	-186.753	-6.12421	-87.0799	-213.734	7.60527	-52.0656	-213.479	1.57368	-77.4625	-212.835	-8.8463	-103.072	-236.086	6.06793	-44.8766	-232.849	2.10084	-67.4203	-234.189	-3.24034	-88.2009	-250.956	3.08168	-38.131	-254.034	-0.777091	-52.2672	-259.708	-5.63917	-74.2988	-239.12	18.499	-3.91358	-241.347	21.8369	21.0001	-209.729	18.4286	9.49387	
12	0.1	-195.531	0.000347539	20.2871	-180.025	-13.061	5.4508	-161.676	-18.2851	-9.26047	-149.408	-22.2189	-23.0357	-191.594	8.42754	-47.2603	-186.678	2.72247	-67.5298	-186.083	-4.3472	-86.2324	-210.803	10.0379	-53.75	-211.454	3.24804	-78.8298	-212.338	-5.46236	-99.9201	-236.383	9.39795	-46.937	-229.735	4.43242	-71.0501	-230.6	-2.25495	-90.3188	-253.525	4.88556	-34.1388	-254.03	2.24796	-52.3808	-254.781	-1.16613	-76.4491	-234.67	17.6622	-4.58232	-239.042	21.5515	23.839	-212.174	19.6337	12.0559	
13	0.108333	-194.569	-1.27029	24.0789	-175.503	-11.9971	5.03	-161.676	-15.7963	-12.3956	-150.334	-21.4018	-26.9239	-196.12	11.9289	-44.1041	-190.243	7.17079	-65.6316	-187.131	-3.92806	-90.2468	-211.977	14.0751	-55.3522	-208.997	6.32043	-78.4305	-208.905	-4.63807	-99.0981	-232.868	12.2366	-48.7826	-231.232	7.5059	-68.1108	-228.146	-0.478941	-88.9683	-249.537	8.83008	-38.5755	-253.121	4.18007	-58.4566	-250.792	1.43485	-76.6124	-235.938	18.9815	-4.18854	-238.919	23.7317	21.9161	-212.506	23.2151	14.6919	
14	0.116667	-192.402	0.59464	23.4632	-177.196	-11.1241	7.12959	-162.402	-15.4394	-11.0822	-153.109	-19.3946	-27.893	-195.474	15.3619	-46.6917	-191.309	9.93697	-67.497	-187.152	-1.95859	-89.3371	-210.689	17.2883	-51.3772	-207.514	9.98124	-77.1922	-209.174	-8.47863	-102.347	-232.014	15.4149	-47.4903	-230.196	10.4089	-70.9532	-225.875	0.574769	-88.3573	-253.173	11.0485	-38.7526	-252.876	8.63707	-54.7846	-250.833	2.77983	-79.649	-240.162	21.7797	-1.27219	-238.334	21.5967	21.8521	-213.46	23.8137	12.3774	
15	0.125	-192.693	0.40709	22.4199	-177.566	-10.1556	2.77524	-161.675	-13.1655	-16.6852	-153.042	-20.0761	-28.5275	-192.778	18.9542	-44.184	-186.55	13.8121	-67.5463	-187.686	0.625606	-92.2716	-213.687	21.4741	-50.4299	-206.258	11.9005	-79.9913	-207.679	-6.44589	-98.2687	-233.481	18.8126	-45.5281	-228.821	13.4809	-69.3362	-226.922	0.496598	-89.267	-253.408	13.5632	-37.2636	-249.787	11.1379	-56.329	-245.862	4.22748	-78.1191	-237.113	22.1789	-3.37423	-238.813	22.7369	23.1354	-210.78	26.5117	10.9668	
16	0.133333	-192.235	1.61256	23.8449	-175.168	-8.80191	0.0349355	-164.817	-12.7914	-16.0878	-153.963	-17.1687	-35.6198	-193.65	22.9412	-41.1785	-189.395	16.9573	-69.5833	-186.043	4.41091	-88.9131	-215.262	24.0524	-48.6544	-210.799	15.8245	-78.5543	-209.437	-7.27911	-94.6394	-229.89	21.4109	-46.0023	-230.03	15.9159	-72.1453	-224.883	-1.93734	-91.0773	-251.219	15.5515	-37.8723	-249.72	13.5142	-56.1006	-244.805	4.25542	-75.4718	-238.54	23.6392	1.49468	-237.893	25.1726	22.4018	-212.874	27.7433	11.024	
17	0.141667	-190.619	2.17448	22.3157	-178.683	-9.99938	3.47702	-166.767	-13.914	-16.1175	-156.782	-18.9414	-36.4859	-190.303	26.0044	-38.5288	-188.425	20.8938	-68.3971	-184.949	5.40189	-86.018	-212.686	28.1665	-51.5859	-207.83	18.6934	-76.3104	-209.615	-12.0846	-90.318	-232.665	25.3088	-45.4299	-229.811	19.9643	-69.3468	-219.682	-1.03618	-84.8789	-249.153	17.837	-33.9917	-249.404	14.8113	-58.5437	-243.546	5.32729	-73.2174	-236.188	25.8496	-0.0514383	-240.328	25.0773	22.6663	-214.683	27.7678	13.6954	
18	0.15	-189.925	3.246	21.3509	-180.276	-9.06045	2.94701	-166.012	-13.6683	-20.8873	-164.82	-17.9299	-39.6226	-192.239	28.6642	-36.608	-186.519	26.6556	-65.3364	-187.143	6.80888	-84.0683	-212.235	31.4914	-46.5785	-210.552	19.0855	-77.8636	-210.045	-6.06821	-85.4257	-232.286	27.5171	-41.5877	-229.688	20.8987	-70.3567	-220.588	-2.86021	-83.396	-249.868	19.1609	-33.0832	-245.462	16.9009	-57.6952	-238.725	5.82967	-71.8307	-235.79	25.5679	2.91453	-241.071	25.9419	26.9942	-215.687	26.3276	15.5307	
19	0.158333	-192.782	4.09489	22.1719	-175.986	-8.08899	2.21918	-168.164	-11.8222	-19.2378	-164.153	-18.0117	-41.3271	-195.061	34.8799	-39.4509	-189.133	31.9293	-62.5256	-187.16	8.29615	-80.4608	-213.25	35.2639	-48.5705	-206.079	23.8547	-74.243	-207.718	-5.44148	-79.9974	-233.726	30.1697	-44.6189	-227.224	23.3342	-66.5024	-218.323	-2.60077	-78.2753	-251.311	19.695	-31.2918	-247.952	18.1407	-55.5601	-238.56	1.80595	-70.5494	-237.184	28.7317	1.36392	-240.193	22.5787	28.9181	-211.095	28.5472	18.4316	
20	0.166667	-194.334	5.54961	24.3622	-175.615	-5.02679	-1.03174	-167.125	-8.77713	-22.8964	-166.658	-16.1659	-45.5194	-196.81	35.7381	-34.3869	-192.57	32.1595	-65.3736	-187.761	6.82018	-78.3049	-216.913	35.17	-45.4567	-206.922	26.5841	-72.9806	-204.946	-6.18899	-74.9874	-234.064	29.02	-41.4904	-226.964	19.8719	-70.0078	-216.166	-2.34031	-73.0878	-249.742	18.7956	-32.3775	-245.281	15.7921	-55.6615	-231.669	0.324713	-67.7313	-238.242	25.4721	1.9668	-240.319	23.2623	25.3012	-215.866	30.7407	14.6908	
21	0.175	-191.588	9.1853	20.8225	-177.702	-4.04178	2.37508	-167.536	-7.64998	-22.1416	-169.076	-14.8615	-41.4196	-196.881	38.5774	-36.9212	-190.216	35.713	-63.3405	-185.098	10.5523	-75.1574	-212.327	39.0115	-47.7937	-208.566	24.7783	-73.8441	-203.039	-3.92165	-71.8736	-233.257	29.1653	-40.9736	-224.285	19.6871	-68.3838	-216.112	-4.5624	-69.9857	-246.825	19.5591	-35.6549	-239.739	13.6672	-57.7637	-229.957	-2.79974	-65.4203	-238.379	26.4376	0.740984	-242.582	22.1067	27.7807	-216.032	30.613	16.3419	
22	0.183333	-191.548	8.39447	22.3814	-176.911	-1.07241	-3.51629	-167.429	-5.86531	-25.1926	-169.137	-13.9042	-49.0079	-195.203	39.9913	-33.5306	-191.495	36.848	-63.0148	-186.077	11.116	-71.469	-213.531	38.5657	-46.3138	-212.565	27.7019	-72.1019	-204.488	-6.72703	-66.182	-230.304	28.9416	-40.0646	-226.597	19.7315	-67.428	-212.799	-4.2023	-65.4187	-249.245	18.484	-35.7643	-240.286	10.9894	-58.0665	-229.056	-6.22997	-65.1588	-241.45	26.3626	0.770255	-243.622	23.5637	28.8363	-215.416	32.3822	17.058	
